# xmcd
#
# Track frame offsets:
#	150
#	13008
#	28717
#	42914
#	54896
#	66888
#	79174
#	101393
#	116023
#	133904
#	147471
#	172501
#	190289
#	205981
#	220931
#	237586
#	251530
#	268708
#	282542
#	294184
#	308211
#
# Disc length: 4253 seconds
#
# Revision: 1
# Processed by: cddbd v1.4PL0 Copyright (c) Steve Scherf et al.
# Submitted via: EasyCDDAExtractor 6.0.0.1
#
DISCID=39109b15
DTITLE=Eva Olmerova - Nejvetsi hity CD1
DYEAR=2001
DGENRE=Blues
TTITLE0=Jsi jako dlouhy most
TTITLE1=Meteor
TTITLE2=Blues samotarky
TTITLE3=Muj plac
TTITLE4=Un homme et une femme
TTITLE5=Druhy breh
TTITLE6=Slunce zhaslo dojetim
TTITLE7=Matka
TTITLE8=Cekej tise
TTITLE9=Pojd
TTITLE10=Cerna kara
TTITLE11=Blues zeleznicniho mostu
TTITLE12=O, bozi den
TTITLE13=Tam pod nebeskou bani
TTITLE14=Slunce shanim
TTITLE15=Vstava den a more svita
TTITLE16=Vzdavam svuj dik
TTITLE17=Poprchava
TTITLE18=Scitani
TTITLE19=Jdou, leta jdou
TTITLE20=Posledni produkce
EXTD=
EXTT0=
EXTT1=
EXTT2=
EXTT3=
EXTT4=
EXTT5=
EXTT6=
EXTT7=
EXTT8=
EXTT9=
EXTT10=
EXTT11=
EXTT12=
EXTT13=
EXTT14=
EXTT15=
EXTT16=
EXTT17=
EXTT18=
EXTT19=
EXTT20=
PLAYORDER=
